<svg width="455" height="413" viewBox="0 0 455 413" fill="none" xmlns="http://www.w3.org/2000/svg">
<path d="M366.689 131.013C365.789 143.943 362.226 154.687 354.514 163.705C343.32 177.074 328.563 183.38 310.281 181.761C303.335 181.128 297.404 178.117 292.453 173.591C283.784 165.799 279.786 155.952 278.784 144.673C278.643 143.63 278.679 142.767 278.905 141.739C281.383 130.604 284.037 119.649 290.495 109.888C299.273 97.2839 311.823 91.0594 327.936 91.8974C346.423 93.0062 363.262 107.359 366.242 124.079C366.677 126.864 366.563 129.625 366.689 131.013ZM346.673 131.397C346.223 128.958 346.147 126.362 345.324 124.08C341.179 113.363 326.541 107.918 315.864 113.183C312.122 114.93 309.254 117.751 307.279 121.127C303.528 127.542 301.038 134.527 300.006 141.746C299.497 145.183 300.073 149.01 301.403 152.35C304.373 160.425 310.649 163.969 319.146 162.591C326.904 161.355 333.648 158.003 338.484 151.978C343.129 146.119 345.62 139.134 346.673 131.397Z" fill="#C93228"/>
<path d="M409.926 150.441C408.902 157.487 408.419 164.728 407.028 171.759C403.604 188.042 394.079 200.961 379.744 210.397C361.252 222.773 340.443 229.002 317.518 228.747C308.711 228.73 300.356 226.656 292.431 223.044C285.049 219.627 278.062 215.535 271.857 210.266C251.3 192.647 237.12 171.661 234.363 145.096C232.533 127.213 234.358 109.654 241.644 93.1849C246.884 81.8179 254.096 71.5694 263.09 62.6049C266.149 59.6192 270.103 57.1891 274.042 55.1042C285.099 49.5096 297.155 46.3766 309.197 43.589C312.903 42.7046 317.109 43.0511 320.956 43.2099C345.502 44.2231 366.042 53.3695 381.999 71.3167C400.054 91.7711 409.914 115.172 409.719 142.134C409.605 144.895 409.491 147.657 409.377 150.418C409.56 150.426 409.743 150.434 409.926 150.441ZM389.425 149.249C391.091 126.67 384.407 106.339 370.296 88.1223C364.367 80.6163 357.48 74.1081 348.492 69.5878C327.818 59.2257 307.407 60.2849 287.168 70.5142C283.983 72.1116 281.311 74.5946 278.999 77.2653C275.15 81.6015 271.661 86.1254 268.347 90.8295C259.387 103.426 254.054 117.037 254.146 132.6C254.371 162.692 268.67 185.238 294.216 202.026C297.252 204.053 300.492 205.57 303.93 206.749C307.727 208.115 311.904 209.153 315.744 209.484C335.71 210.308 353.735 204.828 369.423 193.72C379.445 186.526 385.713 176.931 387.494 164.902C388.441 159.755 388.845 154.412 389.425 149.249Z" fill="#ACA7CB"/>
<path d="M192.822 115.708C193.414 101.383 195.92 89.5572 201.336 78.3703C204.94 71.0849 209.797 64.5428 216.084 58.9242C224.655 51.3253 233.24 43.3811 241.635 35.6021C242.396 34.942 242.981 34.1017 243.742 33.4416C246.604 30.7935 249.304 27.6201 252.694 25.5125C269.84 14.637 288.338 6.58336 309.496 5.20922C327.343 4.04415 344.265 7.50882 360.304 14.5677C373.103 20.1097 384.929 26.9946 395.204 35.8902C405.656 44.9659 414.042 55.1665 420.335 67.1825C427.452 81.48 434.195 95.9351 439.444 111.02C446.81 132.589 449.196 154.817 447.346 177.389C446.638 185.658 444.295 193.514 439.783 200.589C434.481 209.014 428.996 217.432 422.806 225.129C410.026 241.371 392.02 250.828 371.966 256.57C343.372 264.725 314.387 264.566 285.751 255.95C279.77 254.147 273.811 251.827 268.423 249.011C243.643 235.886 224.015 217.961 211.824 193.254C199.294 167.841 193.043 141.477 192.822 115.708ZM213.169 116.202C213.659 139.908 219.46 163.833 230.814 186.603C240.141 205.141 254.994 218.721 273.082 229.495C278.456 232.656 284.394 235.494 290.558 237.304C316.291 245.109 342.338 245.32 367.987 237.389C383.229 232.659 396.921 225.444 406.798 212.885C412.029 206.186 416.731 198.946 421.434 191.706C424.966 186.146 426.688 179.994 427.135 173.615C428.32 153.782 426.195 134.158 419.454 115.208C414.683 101.872 408.616 88.8282 402.168 76.1142C397.072 66.2222 390.262 57.8155 381.762 50.3763C373.262 42.9372 363.584 37.3511 353.137 32.5978C337.288 25.3739 320.895 22.4497 303.534 25.1907C295.776 26.4265 288.547 28.2027 282.626 33.8364C279.764 36.4845 276.015 38.4043 272.632 40.3393C269.623 42.1169 266.621 43.7218 263.443 45.1465C258.573 47.5388 254.408 50.6517 250.588 54.2975C244.477 60.0963 238.175 66.06 231.712 71.4985C225.052 77.2746 220.547 84.177 217.654 92.0103C214.776 99.4985 213.547 107.055 213.169 116.202Z" fill="#F7EDE8" fill-opacity="0.6"/>
<path d="M12.3362 211.254C12.2296 211.738 11.5273 211.704 11.4684 211.211L10.8595 206.123C10.8195 205.788 10.4338 205.62 10.1618 205.819L5.3639 209.329C4.97957 209.611 4.48432 209.167 4.72181 208.754L7.10504 204.612C7.25288 204.355 7.10994 204.028 6.82091 203.963L1.59765 202.774C1.1752 202.678 1.13061 202.094 1.53358 201.934L6.81908 199.847C7.0877 199.741 7.18334 199.409 7.01251 199.177L4.66866 195.982C4.38477 195.595 4.83645 195.097 5.24905 195.342L9.22839 197.707C9.48661 197.86 9.81931 197.716 9.88384 197.423L10.8247 193.146C10.9305 192.664 11.6262 192.693 11.6917 193.182L12.483 199.08C12.5296 199.428 12.9433 199.584 13.2082 199.355L17.1681 195.926C17.5523 195.593 18.1013 196.067 17.8281 196.496L14.342 201.962C14.1471 202.267 14.3838 202.664 14.7452 202.638L18.9735 202.333C19.498 202.295 19.636 203.042 19.1326 203.194L15.4146 204.317C15.109 204.41 14.9999 204.786 15.209 205.027L17.9655 208.209C18.293 208.587 17.8373 209.132 17.4074 208.877L13.9093 206.798C13.651 206.644 13.3183 206.789 13.2538 207.082L12.3362 211.254Z" fill="#C93228"/>
<path d="M59.6572 233.256L21.0199 178.744" stroke="black" stroke-width="1.5" stroke-linecap="round"/>
<path d="M66.1577 234.758L9.10263 199.984" stroke="#C93228" stroke-width="1.5" stroke-linecap="round"/>
<path d="M23.0243 184.968L22.2752 182.591C22.1076 182.059 21.4312 181.902 21.0464 182.306L18.6642 184.802C18.3363 185.146 17.7719 184.797 17.9323 184.35L18.7816 181.983C18.9491 181.516 18.6138 181.021 18.1179 181.004L14.7634 180.885C14.3294 180.869 14.1781 180.301 14.5471 180.072L17.6315 178.157C18.0427 177.901 18.0977 177.324 17.7421 176.996L16.4062 175.762C16.0544 175.437 16.4021 174.864 16.8529 175.025L19.1115 175.836C19.5786 176.003 20.0736 175.668 20.0912 175.172L20.1626 173.156C20.18 172.666 20.8651 172.568 21.0193 173.033L22.0215 176.059C22.2037 176.609 22.9221 176.74 23.2866 176.29L24.7683 174.458C25.0871 174.064 25.7094 174.433 25.5166 174.902L24.2664 177.94C24.0363 178.499 24.5444 179.08 25.1294 178.927L26.0625 178.683C26.5708 178.55 26.8419 179.26 26.3744 179.5L25.6976 179.847C25.2218 180.091 25.1592 180.746 25.5802 181.076L26.9011 182.11C27.2941 182.418 26.9514 183.039 26.4816 182.87L24.929 182.313C24.462 182.146 23.967 182.481 23.9494 182.977L23.8829 184.851C23.8654 185.345 23.1728 185.439 23.0243 184.968Z" fill="black" stroke="black" stroke-width="0.293067"/>
<path d="M184.17 359.547C185.83 359.429 187.581 359.704 188.833 360.667C189.688 361.324 188.755 363.62 188.602 364.455C188.388 365.614 187.448 365.832 186.349 365.847C185.94 366.031 185.51 366.271 185.149 366.493C184.956 366.613 184.755 366.664 184.552 366.682C184.346 367.456 184.338 368.566 184.077 368.947C183.533 369.743 183.247 369.899 182.797 368.847C182.642 368.485 182.352 368.088 182.247 367.68C182.208 367.529 182.194 367.376 182.222 367.222C182.534 365.526 184.372 365.817 186.002 365.845C186.352 365.786 186.675 365.668 186.963 365.504C187.087 365.178 187.242 364.36 187.331 364.192C187.981 362.972 186.212 362.212 185.416 361.668C184.283 360.892 183.184 361.563 182.032 361.932C181.077 362.237 179.801 361.89 180.634 360.672C181.549 359.335 182.86 359.191 184.17 359.547Z" fill="#C93228"/>
<path d="M181.684 360.025C183.822 359.331 186.913 359.191 188.833 360.667C189.688 361.324 188.755 363.62 188.602 364.455C188.057 367.416 182.772 364.233 182.222 367.222C182.118 367.79 182.585 368.351 182.797 368.847C183.247 369.899 183.533 369.743 184.077 368.947C184.499 368.331 184.258 365.812 185.265 365.881C187.996 366.068 189.653 362.746 187.195 361.064C185.306 359.771 182.306 358.228 180.634 360.672C179.801 361.89 181.077 362.237 182.032 361.932C183.184 361.563 184.283 360.892 185.416 361.668C186.212 362.212 187.981 362.972 187.331 364.192C187.221 364.399 187.012 365.596 186.881 365.638C186.341 365.811 185.672 366.171 185.149 366.493C184.273 367.033 183.241 366.177 182.571 367.157C182.123 367.812 182.081 367.949 182.135 368.68C182.153 368.922 182.598 369.84 182.685 369.208" stroke="#C93228" stroke-width="1.50298" stroke-linecap="round" stroke-linejoin="round"/>
<path d="M182.293 373.426C182.31 373.481 182.321 373.534 182.326 373.586C182.398 373.519 182.481 373.471 182.579 373.453C182.82 373.408 182.28 374.438 181.886 374.386C181.81 374.377 181.74 374.327 181.682 374.222C181.438 373.783 181.804 373.199 182.079 373.207C182.168 373.209 182.247 373.274 182.293 373.426Z" fill="#C93228"/>
<path d="M182.151 373.092C181.017 374.842 182.58 374.365 182.293 373.426C182.104 372.805 181.359 373.642 181.682 374.222C182.044 374.873 182.866 373.399 182.579 373.453C181.832 373.593 181.954 375.434 181.161 374.54" stroke="#C93228" stroke-width="1.50298" stroke-linecap="round" stroke-linejoin="round"/>
<path d="M91.2621 328.101C91.3677 328.067 91.4723 328.031 91.5757 327.992C92.5286 326.779 93.9983 325.768 94.1019 323.941C94.1299 323.448 94.1532 322.464 93.7839 321.92C93.6507 321.724 93.4665 321.585 93.2131 321.547C92.4098 321.426 90.5541 321.561 90.1363 322.38C89.3555 323.913 88.5193 325.244 87.0038 326.193C85.5855 327.08 84.6888 325.42 84.9888 324.164C85.4901 322.064 86.0656 320.534 88.1915 319.886C89.8131 319.392 92.7843 318.495 94.2892 319.537C96.07 320.77 96.57 323.095 95.9155 325.095C95.6029 326.051 94.8848 326.834 94.1177 327.513C94.0072 327.663 93.8952 327.795 93.7849 327.904C93.4893 328.195 92.99 328.493 92.6302 328.861C92.0875 329.711 92.6785 330.63 93.0443 331.755C93.226 332.314 93.4354 333.036 93.583 333.793C93.7106 334.288 93.7856 334.771 93.7649 335.215C93.7972 335.888 93.7356 336.526 93.5161 337.038C93.3374 337.456 93.0454 337.229 92.772 336.841C92.205 336.888 92.0346 335.544 91.8915 335.104C91.4438 333.726 90.9492 332.381 90.8069 330.955C90.5181 329.929 90.243 328.432 91.2621 328.101Z" fill="#CD4631"/>
<path d="M86.7386 323.844C85.794 322.062 87.8143 321.175 89.1868 320.31C90.2762 319.623 91.3256 319.005 92.6726 319.288C93.5491 319.471 94.9407 320.22 95.2844 321.067C96.5635 324.219 94.3701 327.091 91.2621 328.101C89.9605 328.524 90.7701 330.848 91.023 331.665C91.4316 332.984 91.535 334.355 92.1163 335.626C92.2763 335.975 93.1432 337.909 93.5161 337.038C94.1337 335.596 93.5012 333.161 93.0443 331.755C92.6092 330.416 91.8555 329.37 93.0698 328.385C94.144 327.514 95.4601 326.487 95.9155 325.095C96.57 323.095 96.07 320.77 94.2892 319.537C92.7843 318.495 89.8131 319.392 88.1915 319.886C86.0656 320.534 85.4901 322.064 84.9888 324.164C84.6888 325.42 85.5855 327.08 87.0038 326.193C88.5193 325.244 89.3555 323.913 90.1363 322.38C90.5541 321.561 92.4098 321.426 93.2131 321.547C94.1693 321.691 94.14 323.27 94.1019 323.941C93.9494 326.629 90.8389 327.552 90.7697 329.949C90.7175 331.76 91.3401 333.407 91.8915 335.104C92.0617 335.628 92.2707 337.431 93.1404 336.649C94.7988 335.157 92.7 331.789 92.2336 330.027C91.9663 329.017 93.232 328.449 93.7849 327.904C94.4537 327.245 95.1794 325.716 95.3187 324.791C95.5076 323.537 95.0716 321.859 93.9525 321.14C92.5577 320.245 91.1044 321.543 89.8298 321.097C88.7228 320.709 87.6061 323.617 87.1834 324.447C87.0172 324.773 86.8122 325.078 86.6147 325.378C86.525 325.515 86.4003 326.333 86.3119 326.362C86.0341 326.452 86.4888 325.795 86.6591 325.558C87.2334 324.758 87.7358 323.894 88.0393 322.951C88.3772 321.901 89.4944 321.953 90.4998 321.626C91.0774 321.438 92.3004 320.764 92.9053 320.983C93.8219 321.314 94.2548 321.739 93.2643 322.471" stroke="#CD4631" stroke-width="1.42087" stroke-linecap="round" stroke-linejoin="round"/>
<path d="M95.8519 341.427C95.8678 341.41 95.8828 341.392 95.8967 341.374C95.7336 341.312 95.2167 341.205 95.083 341.052C94.5637 340.459 95.4143 339.924 95.8319 340.504C96.089 340.862 96.0661 341.153 95.8967 341.374C95.967 341.4 95.9717 341.418 95.8519 341.427Z" fill="#CD4631"/>
<path d="M94.9242 340.606C91.8798 342.412 97.0623 342.214 95.8319 340.504C95.4143 339.924 94.5637 340.459 95.083 341.052C95.3118 341.313 96.6633 341.443 95.4421 341.433" stroke="#CD4631" stroke-width="1.42087" stroke-linecap="round" stroke-linejoin="round"/>
<path d="M192.282 310.4L82.9242 300.479C76.0721 299.857 69.9223 304.682 68.8952 311.485L57.8296 384.785C56.7126 392.184 62.057 398.996 69.5093 399.672L183.247 409.991C190.397 410.64 196.719 405.369 197.368 398.219L204.054 324.522C204.703 317.371 199.432 311.049 192.282 310.4Z" stroke="#C93228" stroke-width="4"/>
<path d="M118.058 362.986L121.014 342.41C121.438 339.457 124.831 337.991 127.273 339.706L145.506 352.517C148.148 354.373 147.615 358.434 144.583 359.545L123.394 367.31C120.552 368.352 117.628 365.982 118.058 362.986Z" stroke="#C93228" stroke-width="2"/>
<path d="M72 386L187.037 396.045" stroke="#595959" stroke-width="5" stroke-linecap="round"/>
<path d="M72 386L105 389" stroke="#C93228" stroke-width="5" stroke-linecap="round"/>
</svg>
