<svg width="234" height="261" viewBox="0 0 234 261" fill="none" xmlns="http://www.w3.org/2000/svg">
<path d="M15.8514 209.033C9.40358 200.294 2.98695 212.046 5.9278 218.84C7.10142 221.552 7.21478 224.818 10.3324 225.733C11.2972 226.016 12.1583 227.177 13.2245 227.177C15.0225 227.177 15.6911 226.741 17.2842 226.196" stroke="#4D4D4D" stroke-width="3" stroke-linecap="round" stroke-linejoin="round"/>
<path d="M18.2393 227.667C19.5498 234.563 20.0587 242.112 23.3868 248.263C25.9053 252.917 31.0636 257.417 36.3617 258.097C39.8063 258.539 42.6383 259.507 46.2057 258.67C48.9446 258.027 51.4528 256.889 54.1127 256.109C56.3145 255.463 58.2217 253.886 59.7909 252.186C61.7958 250.013 62.612 247.175 64.1955 244.939C65.2674 243.426 65.5222 240.035 65.5222 238.183C65.5222 235.705 65.9998 233.47 65.9998 230.991C65.9998 225.638 64.0893 220.46 64.0893 215.162C64.0893 213.613 63.2222 212.131 63.1341 210.504C63.0189 208.374 62.5301 205.553 62.1524 203.421C61.8039 201.453 61.2237 199.409 61.2237 197.373C61.2237 194.018 59.9523 197.374 58.3581 196.283" stroke="#4D4D4D" stroke-width="3" stroke-linecap="round" stroke-linejoin="round"/>
<path d="M11.5533 202.168C10.3845 197.818 11.2187 193.245 9.40409 189.146C8.30257 186.658 9.58026 182.879 10.0144 180.428C10.3272 178.661 10.1205 176.746 10.1205 174.952C10.1205 173.399 11.3028 172.524 11.5268 171.029C11.7429 169.587 10.9363 168.124 9.64289 167.46C8.39795 166.821 8.96864 167.23 9.85516 166.371C10.3528 165.888 12.24 165.038 12.0044 164.191C11.8431 163.611 11.1016 163.87 13.0392 163.428C14.6472 163.061 16.6731 161.467 18.2398 161.467C19.9008 161.467 20.9207 161.115 22.6444 160.486C24.5154 159.803 25.3827 161.617 26.6244 161.385C28.093 161.111 29.1838 159.069 30.8698 159.069C31.0517 159.069 31.8083 159.963 32.6741 159.996C33.9954 160.046 35.5385 160.938 36.8664 160.377C37.7507 160.003 37.0041 161.689 38.0604 161.93C40.414 162.467 42.7025 160.061 44.7469 159.287C46.712 158.544 45.8781 159.35 45.3571 160.486C45.0293 161.201 49.3089 161.204 50.1332 161.358C52.3491 161.772 51.287 161.634 50.027 162.693C48.3431 164.107 50.7943 164.409 51.9375 164.409C54.2359 164.409 53.648 164.242 53.5826 165.989C53.513 167.846 53.9049 167.682 55.0154 168.822C55.7608 169.588 55.8286 170.807 56.687 171.492C57.5088 172.149 59.3143 170.782 58.7831 172.555C58.2613 174.296 57.0389 175.763 56.5543 177.54C56.2392 178.696 58.7407 178.532 59.3138 179.12C60.8352 180.682 59.1977 181.251 58.8627 182.798C58.6046 183.991 59.5122 184.369 59.7649 185.277C60.0605 186.339 58.3636 186.825 58.9423 187.947C59.5724 189.169 59.7948 188.923 58.8362 190.399" stroke="#4D4D4D" stroke-width="3" stroke-linecap="round" stroke-linejoin="round"/>
<path d="M6.77706 167.352C5.71331 167.991 2.00798 169.916 4.86664 171.384C6.06187 171.997 4.5971 171.174 4.89318 173.454C5.24311 176.149 6.05181 175.832 4.15024 178.385C2.61909 180.441 4.07564 181.338 3.06236 183.534C2.48673 184.782 2.05278 186.456 2.00101 187.838C1.92034 189.992 6.68217 190.897 5.52998 192.606C5.03024 193.347 3.57732 194.388 3.6461 195.412C3.75629 197.052 6.40341 198.698 7.4404 199.716C7.94986 200.217 9.42003 201.542 8.58135 202.168C7.62959 202.879 8.58305 202.809 9.05895 203.639C9.45205 204.325 10.3856 205.601 10.3856 205.601C10.3856 205.601 9.9319 202.082 9.35082 200.425C8.83306 198.948 7.96997 197.907 6.98933 196.774C6.60317 196.328 7.72459 195.825 7.99761 195.494C9.92528 193.155 10.545 186.912 7.25467 185.223C6.66115 184.918 7.44728 186.712 7.97108 187.13C8.95214 187.913 9.10191 183.707 9.05895 183.316C8.79841 180.942 7.97334 179.368 6.35253 177.704C5.2449 176.567 5.61309 176.794 6.8036 176.641C8.31768 176.447 10.1085 174.834 8.44868 173.508C7.28561 172.58 8.95261 176.941 9.64269 177.649" stroke="#4D4D4D" stroke-width="3" stroke-linecap="round" stroke-linejoin="round"/>
<path d="M14.8968 205.11C15.5834 206.012 16.6972 206.748 17.2849 207.671C17.8242 208.518 17.8005 209.601 18.2401 210.504C19.3501 212.783 20.1505 208.977 20.1505 207.943C20.1505 207.053 19.2596 203.403 18.3462 205.982C18.1417 206.559 18.7085 204.934 18.7177 204.51C18.7511 202.966 18.7126 201.416 18.2401 199.934C17.4891 197.578 15.6473 194.82 13.9416 193.068C13.5138 192.629 14.7846 194.074 15.3744 194.213C16.6957 194.523 17.2623 193.59 17.2849 192.36C17.3007 191.5 15.4131 184.456 13.5701 186.585C13.4828 186.685 16.8072 188.124 16.8072 185.25C16.8072 184.057 14.6305 182.506 16.8072 183.996C18.9212 185.443 21.489 184.041 22.7242 182.089C24.3063 179.59 21.234 179.197 23.7591 181.79C26.0411 184.133 29.5219 182.631 31.3211 180.373C31.7829 179.794 33.5723 182.104 35.4338 181.763C36.4332 181.579 39.9575 178.919 40.6875 179.856C42.9257 182.728 47.7198 182.181 50.7172 182.062C51.8698 182.017 56.9069 178.481 55.0156 177.267C53.8348 176.51 53.5678 180.032 55.4933 178.521C58.1351 176.446 56.5746 173.699 54.538 172.146C52.4801 170.576 54.8106 171.735 54.4319 169.694C53.9451 167.07 50.8564 163.4 47.9577 165.226C44.1351 167.634 49.5497 170.11 49.5497 167.133C49.5497 163.177 42.3003 161.557 39.5731 163.047C36.8504 164.534 40.7839 164.727 39.3874 164.136C37.6067 163.383 35.514 163.08 33.603 162.965C32.8342 162.918 31.3341 163.248 30.6843 162.692C29.7011 161.851 27.332 161.125 26.094 160.731C21.8258 159.371 22.3369 163.235 23.9448 166.261C25.4849 169.16 18.9992 167.343 17.789 167.16C14.5456 166.671 12.6207 171.219 16.0378 171.219C17.3067 171.219 16.3302 170.682 15.7724 170.538C13.9809 170.079 12.3991 170.804 11.1025 172.091C8.1438 175.028 9.34833 181.45 14.3131 179.828C16.0183 179.271 13.9793 178.248 13.1456 178.248C10.594 178.248 7.46883 179.859 6.61834 182.444C5.04432 187.227 16.888 181.128 18.2401 179.992C19.1402 179.236 20.1044 178.454 18.983 177.54C18.1012 176.821 15.4159 175.142 16.5419 175.142C17.1761 175.142 19.7884 177.58 20.6281 177.921C22.0055 178.48 24.4162 179.171 25.6695 177.921C28.5882 175.01 22.8818 173.659 23.1222 174.325C24.9255 179.324 33.79 176.355 36.5483 174.325C37.6176 173.538 37.724 172.231 36.1768 173.072C34.4961 173.986 33.1155 176.16 33.8418 178.139C35.5583 182.816 46.0202 180.461 46.7902 176.014C47.0278 174.642 44.554 174.021 43.6593 174.543C41.3671 175.88 43.3611 178.436 45.1451 178.766C49.8108 179.628 57.9147 174.071 50.6907 170.893C49.1254 170.204 46.2093 169.826 45.0921 171.546C43.7244 173.653 47.8269 173.555 48.7803 173.372C57.0999 171.77 47.3208 167.061 44.8002 165.635C42.7749 164.489 37.6471 161.106 39.4404 166.261C39.6691 166.919 38.2721 164.925 38.0341 164.681C36.6474 163.257 34.6808 162.198 32.7805 161.793C30.534 161.315 27.7166 161.32 26.0144 163.156C24.8952 164.362 26.2473 164.772 27.3146 164.872C27.676 164.906 29.8542 164.983 28.88 164.136C27.4445 162.889 25.2811 162.898 23.5203 162.692C22.2298 162.542 19.3086 162.118 18.8503 164C18.3748 165.953 20.1755 169.111 21.6894 170.184C23.3136 171.336 21.93 170.297 20.9996 169.912C19.5314 169.304 17.1857 168.521 15.5867 168.931C13.6901 169.418 17.9116 171.107 18.1339 171.165C21.3484 172.007 25.1333 171.433 28.2167 170.293C28.9608 170.018 32.0876 168.518 31.0293 167.242C30.6194 166.748 29.2882 165.912 28.8535 166.861C27.7608 169.245 35.8874 168.125 36.7605 167.569C37.6514 167.001 33.2315 165.626 33.8418 168.822C34.5016 172.277 40.0586 172.347 42.0142 170.184C43.9881 168.002 40.1952 167.721 41.3774 169.694C42.7211 171.936 43.7734 169.384 40.3691 168.577C35.2833 167.372 32.0202 169.55 27.1554 170.239C23.8318 170.709 24.1148 172.175 22.0609 174.434C20.0465 176.65 18.0945 175.688 15.8786 176.968C13.7136 178.218 15.1309 183.817 14.8703 185.958C14.6201 188.013 10.6449 186.438 9.96158 189.445C9.55486 191.235 10.7616 193.131 12.0577 194.24C12.6556 194.751 14.704 195.097 15.0295 195.765C15.4687 196.667 13.043 195.628 12.0843 195.847C10.813 196.137 11.0639 197.99 11.3413 198.926C12.146 201.64 13.9519 203.702 14.4192 206.581" stroke="#4D4D4D" stroke-width="3" stroke-linecap="round" stroke-linejoin="round"/>
<path d="M15.3736 219.822C14.3981 218.445 13.8762 217.668 13.9408 216.008C13.983 214.926 14.5888 215.529 13.7286 214.646C13.0759 213.976 11.5806 213.88 11.0752 214.918" stroke="#4D4D4D" stroke-width="3" stroke-linecap="round" stroke-linejoin="round"/>
<path d="M28.7471 203.149C30.2733 201.143 32.0303 200.512 34.3722 199.825C35.6366 199.454 38.011 199.615 37.8216 199.226" stroke="#4D4D4D" stroke-width="3" stroke-linecap="round" stroke-linejoin="round"/>
<path d="M52.1494 198.245C54.0785 197.859 56.2725 197.176 57.8807 198.735C58.4517 199.289 61.4362 200.697 59.7911 200.697" stroke="#4D4D4D" stroke-width="3" stroke-linecap="round" stroke-linejoin="round"/>
<path d="M36.8662 209.523C36.8662 209.523 36.8663 209.523 36.8663 209.523" stroke="#4D4D4D" stroke-width="3" stroke-linecap="round" stroke-linejoin="round"/>
<path d="M55.4922 209.033C55.4922 209.033 55.4923 209.033 55.4923 209.033" stroke="#4D4D4D" stroke-width="3" stroke-linecap="round" stroke-linejoin="round"/>
<path d="M47.3733 205.601C47.3733 211.653 51.5911 217.447 53.1311 222.982C53.7867 225.337 52.9386 225.706 50.4777 225.706C48.0818 225.706 46.8579 225.519 45.4629 227.667" stroke="#4D4D4D" stroke-width="3" stroke-linecap="round" stroke-linejoin="round"/>
<path d="M123.045 148.776C119.906 146.507 117.959 146.813 115.096 149.464C112.422 151.941 111.56 156.534 113.964 159.485C117.693 164.063 126.123 162.68 128.889 157.876C130.231 155.545 129.821 157.36 130.705 158.075C132.905 159.855 134.037 159.987 136.247 157.892C138.904 155.373 141.063 145.216 134.51 146.556C133.782 146.706 131.443 148.325 132.544 148.1C134.001 147.802 133.97 146.008 133.609 144.877C132.644 141.861 128.425 140.39 125.768 141.511C123.783 142.348 123.279 144.785 121.682 145.707C120.139 146.598 114.02 151.816 118.759 151.251" stroke="#4D4D4D" stroke-width="2.5" stroke-linecap="round" stroke-linejoin="round"/>
<path d="M125.045 70.1659C127.786 66.6063 132.724 62.8818 137.553 63.1504C139.704 63.2701 140.756 68.1131 141.445 69.6648C143.887 75.1682 131.586 75.8852 134.051 81.4406C134.519 82.4951 135.922 82.8936 136.831 83.4729C138.76 84.7023 139.054 84.1226 139.054 82.1923C139.054 80.6982 135.816 76.8126 137.553 75.7893C142.267 73.0125 141.251 65.6559 135.302 65.6559C130.729 65.6559 124.044 66.4966 124.044 72.4208C124.044 75.3732 126.54 74.5043 127.769 72.9219C129.252 71.0116 130.307 68.6626 133.05 68.6626C134.976 68.6626 138.75 67.9179 139.054 70.667C139.106 71.1333 140.112 73.3461 139.944 73.5622C139.248 74.4581 138.552 75.8086 138.054 76.9307C137.219 78.8119 134.551 78.5635 134.551 80.9395C134.551 82.5264 134.637 82.8006 135.552 83.9461C135.855 84.3251 137.623 85.3373 137.053 84.1967" stroke="#C93228" stroke-width="3" stroke-linecap="round" stroke-linejoin="round"/>
<path d="M140.557 91.2119C140.661 95.3803 142.699 92.8279 141.168 91.6017C140.155 90.7897 139.871 93.0124 141.057 93.6061C142.389 94.273 142.081 90.9101 141.668 91.3233C140.595 92.398 142.873 95.2997 140.557 94.7196" stroke="#C93228" stroke-width="3" stroke-linecap="round" stroke-linejoin="round"/>
<path d="M114.195 26.2351C107.679 17.9076 96.3171 20.4842 89.3072 26.984C82.4813 33.3132 78.2863 49.1847 84.5804 57.0666C86.3312 59.2589 87.873 61.6945 89.9375 63.5998C90.6739 64.2796 88.0463 64.3047 87.0555 64.4518C83.9888 64.9071 82.4786 68.2222 83.3163 71.0757C83.7558 72.5726 84.984 73.6014 86.4659 73.9366C87.4883 74.1679 87.7123 74.5291 86.5367 74.6467C83.7803 74.9226 81.819 75.0704 79.9292 77.3827C77.1396 80.7962 78.3995 83.7441 81.7051 85.9649C85.0466 88.2098 84.4295 89.1996 81.3191 91.075C78.8543 92.5611 77.9292 95.5768 77.0758 98.2873C75.5998 102.976 73.4976 110.042 77.6499 113.803C82.8487 118.511 90.6314 118.694 97.0975 117.492C99.2458 117.092 101.803 116.91 103.482 115.342C103.935 114.918 105.165 113.401 103.875 113.125C101.574 112.634 100.74 116.759 100.62 118.189C99.771 128.327 114.907 131.788 122.208 130.526C126.951 129.707 131.1 127.416 134.825 124.448C137.757 122.113 141.882 119.522 143.824 116.197C144.762 114.592 144.419 116.464 144.969 117.926C146.284 121.425 150.079 120.755 152.94 119.895C156.806 118.733 160.27 116.247 162.605 112.934C162.947 112.448 164.676 109.238 164.966 109.675C168.514 115.024 170.638 107.498 173.673 105.679C174.181 105.374 175.131 108.833 175.424 109.397C177.64 113.659 179.951 117.489 184.949 118.741C195.648 121.42 206.852 116.884 214.253 109.174C217.37 105.927 219.091 101.438 215.144 97.8403C214.19 96.97 217.2 97.9778 217.763 97.9368C220.856 97.7116 225.336 97.3224 227.589 94.9044C230.156 92.1485 231.539 89.7047 230.523 85.8508C229.813 83.1553 228.254 81.554 225.698 80.545C224.573 80.1011 222.309 80.0186 223.956 78.9776C225.608 77.9329 226.375 75.2992 226.525 73.4441C226.76 70.5161 224.75 68.5218 222.15 67.5297C220.978 67.0823 217.374 67.5466 217.977 67.4863C219.983 67.2855 221.086 59.42 220.937 57.9179C220.271 51.2416 213.586 46.0396 206.804 46.4742C205.68 46.5462 204.529 47.2142 205.381 46.0531C206.358 44.7201 206.408 42.33 206.8 40.7883C209.007 32.1051 205.441 24.7694 198.665 19.2159C193.088 14.6451 184.499 12.1312 177.787 15.2861C177.354 15.4899 174.536 18.7619 175.388 18.6767C176.688 18.5466 176.272 15.4251 176.096 14.7382C175.268 11.5194 171.481 8.85124 168.718 7.43384C164.647 5.34549 158.757 6.06548 154.479 7.24519C150.709 8.28483 147.868 10.7441 145.923 14.0438C144.892 15.7923 145.766 17.2533 144.489 16.0827C142.419 14.1845 141.659 12.9408 138.422 13.2064C134.608 13.5193 131.129 14.5183 128.1 16.9033C126.549 18.1245 125.161 20.775 125.364 22.8121C125.367 22.8433 124.937 20.8825 124.635 20.1188C123.004 16.0043 117.55 16.1441 114.655 19.0428C113.435 20.2639 112.738 22.1218 112.6 23.8333C112.528 24.7285 112.027 27.5775 111.78 25.0937" stroke="#4D4D4D" stroke-width="2.5" stroke-linecap="round" stroke-linejoin="round"/>
<path d="M153.478 41.1044C152.743 36.9005 157.382 36.4359 160.705 35.5923C163.343 34.9226 165.855 34.3656 168.378 35.815C170.019 36.758 172.327 39.1748 172.464 41.1044C172.976 48.2841 166.693 52.6297 159.788 52.6297C156.896 52.6297 157.005 57.836 156.98 59.6451C156.94 62.5676 156.253 65.3932 156.591 68.3309C156.684 69.1391 157.163 73.5975 158.481 72.0891C160.664 69.5907 160.983 64.2769 160.983 61.1484C160.983 58.1695 160.152 55.5711 163.235 54.3836C165.962 53.333 169.278 52.1262 171.102 49.6231C173.724 46.0255 174.237 41.0195 171.463 37.374C169.12 34.2933 162.563 34.1554 158.982 34.089C154.287 34.0019 152.131 36.7061 149.752 40.6033C148.329 42.936 149.047 46.8627 152.477 46.004C156.142 45.0865 158.691 42.954 161.261 40.3806C162.636 39.0037 166.453 39.9459 167.989 40.7146C169.816 41.6297 168.726 44.7887 168.211 46.1154C166.15 51.4235 159.296 51.2466 157.592 56.0261C156.304 59.6367 156.48 63.3585 156.48 67.1338C156.48 68.2998 155.722 72.0643 157.981 71.0591C162.288 69.1423 160.269 60.9919 160.483 57.1396C160.605 54.9322 163.52 54.6168 164.986 53.8825C166.76 52.9941 169.218 50.3903 170.101 48.6209C171.3 46.2197 171.519 42.5587 169.74 40.3806C167.522 37.6657 163.753 39.3285 161.484 37.5967C159.512 36.0924 155.369 41.2146 153.978 42.6077C153.431 43.1554 152.82 43.6359 152.227 44.111C151.957 44.3267 151.172 45.8927 150.976 45.8927C150.358 45.8927 151.702 44.8669 152.199 44.5007C153.875 43.2663 155.449 41.8574 156.674 40.1579C158.039 38.2654 160.251 39.1 162.484 39.1C163.767 39.1 166.666 38.5428 167.738 39.3784C169.364 40.6446 169.956 41.7838 167.488 42.6077" stroke="#C93228" stroke-width="3" stroke-linecap="round" stroke-linejoin="round"/>
<path d="M158.981 80.1904C151.684 81.8346 162.228 84.8249 160.871 80.5801C160.411 79.1396 158.353 79.659 159.009 81.1926C159.298 81.868 161.929 83.012 159.481 82.1948" stroke="#CD4631" stroke-width="3" stroke-linecap="round" stroke-linejoin="round"/>
<path d="M189.135 96.0492C192.569 96.0492 197.022 95.2477 200.36 96.2226C202.31 96.7921 203.342 98.0309 204.742 99.3451C206.4 100.901 208.383 102.977 208.137 105.434C207.838 108.43 203.978 109.904 201.572 110.707C198.139 111.853 193.573 111.643 190.001 111.106C187.186 110.683 182.204 109.795 181.098 106.596C180.199 103.996 182.138 102.606 184.354 101.982C187.782 101.016 191.37 100.259 194.886 99.7267C196.59 99.4688 200.461 98.3286 202.161 99.4838C202.874 99.9681 203.591 102.083 203.755 102.901C204.017 104.216 203.319 104.946 202.213 105.555C199.789 106.891 196.837 107.509 194.176 106.509C190.647 105.184 195.141 102.135 197.103 101.999C199.416 101.839 200.301 102.763 201.122 104.931C201.702 106.463 201.685 107.424 199.754 107.585C197.455 107.777 195.062 107.578 192.877 106.839C189.475 105.689 185.059 103.678 182.726 100.802C181.639 99.4625 181.652 97.6703 181.652 96.0492C181.652 93.3606 181.675 93.5785 184.736 93.5512C190.028 93.5041 195.308 93.239 200.602 93.239C202.26 93.239 203.797 93.0699 205.279 93.9329C206.3 94.527 206.339 94.7816 206.284 95.9451C206.085 100.133 201.446 101.203 198.177 102.294" stroke="#4D4D4D" stroke-width="1.5" stroke-linecap="round"/>
<path d="M96.5328 57.6441C96.0469 55.1505 94.4854 52.8626 93.5534 50.4625C92.7427 48.3746 92.4795 45.6645 92.4795 43.4197C92.4795 39.1273 93.0821 34.4909 96.9139 31.728C99.8491 29.6116 105.243 28.5859 108.138 31.4852C110.953 34.3042 110.526 38.7436 111.343 42.3442C112.193 46.0921 110.313 51.9229 106.198 53.0819C104.858 53.4595 101.428 54.3093 100.43 52.9258C98.9831 50.9192 98.5053 47.9068 97.8492 45.5707C97.1446 43.0616 94.6568 37.0533 98.698 35.8392C103.717 34.3312 105.815 42.632 106.129 46.0218C106.313 48.0094 106.466 49.7623 105.124 51.3299C104.565 51.9832 102.125 53.7971 101.366 52.6135C100.311 50.9711 99.5422 43.0895 101.833 42.9687C102.373 42.9403 103.937 42.7338 104.258 43.281C104.838 44.267 104.133 45.8273 103.219 46.2299C101.423 47.0214 100.898 46.9074 100.898 44.9983C100.898 43.2596 101.65 41.9435 103.635 42.7953C104.612 43.2148 104.725 45.1351 104.882 45.9871C105.377 48.6723 105.263 51.4227 105.263 54.1401C105.263 58.3363 102.128 60.637 99.3389 63.5767" stroke="#4D4D4D" stroke-width="1.5" stroke-linecap="round"/>
<path d="M98.4019 109.789C94.7141 109.789 91.4738 110.091 88.4251 107.846C86.3405 106.311 85.6191 104.848 85.6191 102.225C85.6191 100.363 85.8297 98.8652 87.178 97.4377C88.4309 96.1112 89.5735 96.0754 91.335 95.6683C91.9848 95.5181 96.5835 94.2522 97.0855 95.4254C97.8198 97.1412 96.8448 100.069 95.9077 101.531C94.8686 103.154 93.951 104.75 92.1664 105.66C91.7697 105.862 88.7902 107.003 88.7369 106.042C88.637 104.241 88.896 102.898 89.984 101.427C90.6378 100.543 93.1065 100.998 94.0371 101.046C97.4093 101.219 95.9043 109.614 92.2357 105.799C91.4479 104.98 91.3232 103.344 91.8893 102.399C93.9516 98.9565 97.6177 97.4685 101.208 96.3622" stroke="#4D4D4D" stroke-width="1.5" stroke-linecap="round"/>
<path d="M209.714 65.4495C211.365 64.4411 212.831 63.1688 212.831 61.0781C212.831 59.7408 213.164 58.4126 212.035 57.4873C211.205 56.8078 204.841 54.2716 204.725 56.7067C204.645 58.3987 204.725 60.1127 204.725 61.8067C204.725 63.6498 206.682 63.2864 208.085 63.2638C210.69 63.2217 211.01 61.2684 210.008 58.9271C209.469 57.6674 207.646 56.7814 206.942 58.7189C206.575 59.73 211.62 58.8924 208.155 58.8924" stroke="#4D4D4D" stroke-width="1.5" stroke-linecap="round"/>
<path d="M219.353 89.2705C220.041 89.2705 221.976 89.0342 222.208 90.0775C222.413 91.001 222.079 91.5409 221.412 92.0602C219.95 93.199 216.108 92.6454 216.965 90.1473C217.575 88.3699 219.375 87.189 221.243 87.1184C221.693 87.1014 222.25 86.9617 222.486 87.3874C222.715 87.7997 222.595 88.6153 222.397 89.0114C221.828 90.1509 220.763 91.1292 219.571 91.2831C217.904 91.4986 213.98 92.2677 213.98 89.8085" stroke="#4D4D4D" stroke-width="1.5" stroke-linecap="round"/>
<path d="M104.943 188.99C102.52 188.517 99.6661 187.811 99.054 191.101C98.5988 193.547 101.099 196.621 103.693 196.212C104.597 196.069 107.576 194.679 108.165 195.268C109.644 196.747 110.536 195.041 111.443 193.601C112.502 191.919 110.899 186.508 108.693 186.018C107.291 185.706 101.764 189.65 102.443 189.99" stroke="#4D4D4D" stroke-width="2.5" stroke-linecap="round" stroke-linejoin="round"/>
</svg>
