<svg width="272" height="262" viewBox="0 0 272 262" fill="none" xmlns="http://www.w3.org/2000/svg">
<path d="M42.8909 62.8562C44.053 57.3561 43.8855 47.6324 54.0357 39.3038C63.95 31.1688 46.6054 59.8972 35.3603 59.5262C22.2156 59.0926 55.028 11.7587 53.9203 22.5686C53.3005 28.6163 28.4133 55.7884 24.3472 49.5438C19.1746 41.5998 44.2864 7.77311 48.1718 9.23762C55.0262 11.8212 20.5858 49.5576 14.1809 44.3275C6.54347 38.091 26.9128 11.5449 33.804 11.3462C39.3169 11.1872 13.707 35.6731 1.99991 26.3572" stroke="#F7EDE8" stroke-opacity="0.6" stroke-width="2.5" stroke-linecap="round"/>
<path d="M199.961 186.657L201.371 187.938C204.244 190.548 208.865 189.121 209.765 185.345L211.189 179.367C211.956 176.15 216.573 176.266 217.177 179.518L217.618 181.897C218.249 185.294 222.003 187.095 225.047 185.462L232.344 181.546C235.009 180.116 237.912 183.004 236.497 185.676L231.918 194.319C230.385 197.213 232.03 200.772 235.227 201.479C238.329 202.165 238.253 206.613 235.129 207.192L232.633 207.656C229.336 208.268 227.588 211.911 229.174 214.865C230.709 217.725 227.118 220.571 224.684 218.424L221.082 215.246C218.197 212.701 213.639 214.353 213.056 218.156C212.562 221.373 207.914 221.339 207.468 218.115L206.698 212.554C206.241 209.255 202.21 207.898 199.851 210.25L199.402 210.697C197.772 212.322 195.18 210.235 196.42 208.295C197.979 205.857 196.486 202.623 193.618 202.229L192.61 202.091C189.764 201.7 189.602 197.541 192.53 196.997C195.626 196.423 197.221 192.963 195.748 190.218C195.001 188.828 195.467 187.425 196.459 186.599C197.442 185.781 198.819 185.62 199.961 186.657Z" fill="#232323" stroke="#232323" stroke-width="2.04081"/>
<path d="M33.4968 199.03C30.5128 197.236 12.0763 197.545 13.7646 212.691" stroke="#ACA7CB" stroke-width="2.5" stroke-linecap="round"/>
<path d="M31.351 188.991C30.2825 188.046 20.804 186.672 22.2305 193.022" stroke="#ACA7CB" stroke-width="2.5" stroke-linecap="round"/>
<path d="M34.1973 206.667C34.9584 204.611 37.1664 200.64 39.9095 201.202" stroke="#ACA7CB" stroke-width="2.5" stroke-linecap="round"/>
<path d="M195 24.577C198.5 21.5771 210.829 22.682 214.5 27.577C219 33.577 216.5 41.577 218.5 43.577" stroke="#C93228" stroke-width="2.5" stroke-linecap="round"/>
<path d="M203.13 13.9458C204.319 12.5152 209.522 11.6817 211.468 13.0787C213.853 14.791 213.513 17.9233 214.515 18.4441" stroke="#C93228" stroke-width="2.5" stroke-linecap="round"/>
<path d="M98.1597 174.95L85.309 134.831C83.3612 128.749 85.775 122.121 91.1771 118.716L126.888 96.2092C134.416 91.4648 144.402 94.8549 147.485 103.202L165.512 151.998C168.244 159.394 164.334 167.586 156.865 170.112L115.978 183.941C108.57 186.447 100.545 182.398 98.1597 174.95Z" stroke="black"/>
<path d="M100.223 127.157C100.223 125.554 99.6625 124.093 99.8242 122.435C99.8838 121.825 100.386 120.088 101.16 121.017C102.416 122.524 103.276 124.847 104.863 126.009C106.304 127.065 107.746 121.996 108.074 121.146C108.442 120.191 108.81 119.228 109.152 118.263C109.17 118.213 109.255 117.643 109.316 117.841C109.74 119.218 114.087 125.939 115.105 122.751C115.782 120.63 116.19 118.438 117.05 116.377C117.067 116.336 117.611 114.83 117.73 114.806C118.128 114.727 117.988 115.584 118.198 115.931C118.902 117.094 120.382 117.697 121.714 117.63C123.323 117.55 123.388 115.903 123.776 114.713C124.012 113.988 124.703 112.771 125.323 112.275C125.428 112.191 127.454 113.614 127.76 113.728C130.191 114.631 131.607 110.007 132.284 108.385" stroke="#CD4631" stroke-linecap="round"/>
<path d="M99.0082 141.799C97.9991 141.799 96.7046 142.057 96.9931 140.59C97.2631 139.218 98.6639 138.513 99.771 137.885C102.13 136.545 104.754 135.574 107.457 135.236C108.296 135.131 109.102 135.139 109.314 136.1C109.35 136.265 109.265 137.183 109.544 137.208C110.275 137.274 111.907 135.541 112.48 135.179C114.535 133.881 116.724 132.635 118.928 131.609C121.119 130.59 123.2 130.072 125.635 129.94C128.425 129.788 131.593 130.556 133.71 128.299C134.934 126.993 135.239 125.316 136.07 123.808C136.261 123.463 136.611 122.598 136.948 122.369C137.407 122.058 138.426 122.134 138.877 122.124C140.785 122.082 142.697 122.11 144.606 122.11" stroke="#ACA7CB" stroke-linecap="round"/>
<path d="M98.4902 150.09C99.5844 149.969 100.728 148.892 101.671 148.392C104.751 146.758 108.105 145.681 111.415 144.635C117.139 142.828 122.45 140.407 128.428 139.468C132.541 138.822 136.387 136.108 140 134.2C141.429 133.446 143.343 132.639 144.491 131.437C144.977 130.928 145.142 129.964 145.642 129.364" stroke="#ACA7CB" stroke-linecap="round"/>
<path d="M103.931 157.344C104.071 155.938 105.296 154.89 106.277 153.991C108.054 152.362 110.139 151.933 112.509 151.933C114.864 151.933 117.123 152.699 119.475 152.681C123.417 152.651 127.084 150.723 130.443 148.852C133.103 147.371 135.53 145.644 137.942 143.8C138.578 143.313 139.527 143.102 140.23 142.692C144.078 140.448 147.836 138.387 151.342 135.582" stroke="#ACA7CB" stroke-linecap="round"/>
<path d="M109.89 165.635C109.712 165.635 108.721 165.683 109.228 165.376C110.429 164.648 111.526 163.802 112.769 163.131C115.282 161.774 117.788 160.419 120.598 159.791C122.961 159.263 125.408 159.274 127.766 158.726C133.118 157.483 140.258 154.814 143.599 150.148C144.352 149.096 144.226 148.121 144.606 146.981" stroke="#ACA7CB" stroke-linecap="round"/>
<path d="M113.517 173.925C114.727 172.714 115.786 171.372 117.158 170.327C119.292 168.701 122.386 168.379 124.916 167.765C128.673 166.852 132.579 166.495 136.301 165.476C139.747 164.533 142.089 162.813 144.663 160.453C146.944 158.362 149.552 156.95 152.493 155.991C154.426 155.361 156.559 154.909 158.308 153.875C158.914 153.517 159.288 152.982 159.891 152.681" stroke="#ACA7CB" stroke-linecap="round"/>
<path d="M162.418 143.398L180.772 114" stroke="#C93228" stroke-width="8" stroke-linecap="round"/>
<path d="M158.513 143.038C158.513 143.514 158.298 143.916 158.278 144.385C158.233 145.462 158.09 146.537 157.925 147.602C157.749 148.735 157.429 149.768 157.154 150.871C157.073 151.194 156.867 151.747 157.127 151.394C158.162 149.986 160.113 148.919 161.599 148.099C162.664 147.511 163.954 146.999 164.868 146.216" stroke="#ACA7CB" stroke-linecap="round"/>
<path d="M164.713 145.972C164.166 145.972 163.649 146.183 163.089 146.183C162.755 146.183 162.421 146.183 162.087 146.183C161.856 146.183 161.308 146.293 161.126 146.13C160.866 145.899 160.55 145.737 160.282 145.497C160.083 145.319 159.756 145.235 159.607 144.999C159.437 144.729 159.179 144.527 159.057 144.22C158.938 143.923 158.782 143.666 158.696 143.364C158.647 143.192 158.593 142.975 158.593 142.781C158.593 142.681 158.494 142.633 158.564 142.778C158.644 142.941 158.747 143.213 158.884 143.334C159.115 143.54 159.222 143.805 159.355 144.073C159.403 144.167 159.496 144.328 159.596 144.378C159.706 144.433 159.773 144.558 159.889 144.601C160.109 144.681 160.438 144.899 160.622 145.049C160.838 145.226 161.025 145.392 161.258 145.547C161.712 145.85 162.189 146.183 162.761 146.183" stroke="#ACA7CB" stroke-linecap="round"/>
<path d="M158.805 144.495C158.805 145.649 158.724 146.768 158.436 147.889C158.409 147.993 158.33 148.565 158.33 148.179C158.33 147.74 158.384 147.389 158.541 146.975C158.671 146.632 158.789 146.288 158.91 145.943C158.966 145.784 159.057 145.814 159.204 145.814C159.789 145.814 159.961 146.485 160.121 146.966C160.156 147.07 160.269 147.494 160.323 147.162C160.374 146.85 160.521 146.592 160.599 146.289C160.622 146.199 160.723 145.937 160.54 145.978C160.214 146.051 160.079 146.544 159.968 146.807C159.817 147.167 159.602 147.549 159.502 147.924C159.451 148.118 159.597 148.08 159.734 148.021C160.271 147.789 160.764 147.483 161.317 147.273C161.524 147.195 162.115 147.07 161.982 147.247C161.735 147.577 161.219 147.751 160.862 147.924C160.421 148.139 159.972 148.223 159.514 148.375C159.134 148.502 158.924 148.899 158.594 149.111C158.467 149.193 158.037 149.37 158.037 149.548C158.037 149.613 158.15 149.471 158.178 149.413C158.456 148.837 158.798 148.308 159.113 147.751C159.373 147.291 159.658 146.831 159.848 146.336C159.998 145.945 159.829 146.34 159.731 146.482C159.389 146.976 159.056 147.486 158.787 148.024C158.737 148.124 158.439 148.752 158.465 148.674C158.622 148.203 158.649 147.705 158.805 147.238" stroke="#ACA7CB" stroke-linecap="round"/>
<path d="M163.226 147.005C162.533 146.382 159.5 146.862 160.432 146.862" stroke="#ACA7CB" stroke-linecap="round"/>
<path d="M158.777 142.361C158.84 142.374 158.877 142.472 158.921 142.512C158.96 142.548 158.998 142.582 159.04 142.614C159.126 142.681 159.167 142.786 159.238 142.865C159.267 142.898 159.298 142.988 159.31 143.031C159.324 143.084 159.353 143.146 159.382 143.193C159.454 143.311 159.517 143.437 159.555 143.57" stroke="#ACA7CB" stroke-linecap="round"/>
</svg>
