<?xml version="1.0" encoding="utf-8"?><svg xmlns="http://www.w3.org/2000/svg" xmlns:xlink="http://www.w3.org/1999/xlink" width="200px" height="200px" viewBox="0 0 100 100" preserveAspectRatio="xMidYMid" style="margin-right:-2px;display:block;background-repeat-y:initial;background-repeat-x:initial;animation-play-state:paused" ><g transform="rotate(0 50 50)" style="transform:matrix(1, 0, 0, 1, 0, 0);animation-play-state:paused" ><rect x="44.5" y="24" rx="5.5" ry="6" width="11" height="12" fill="#17161c" opacity="0.125" style="opacity:0.125;animation-play-state:paused" ></rect></g>
<g transform="rotate(45 50 50)" style="transform:matrix(0.707107, 0.707107, -0.707107, 0.707107, 50, -20.7107);animation-play-state:paused" ><rect x="44.5" y="24" rx="5.5" ry="6" width="11" height="12" fill="#17161c" opacity="0.25" style="opacity:0.25;animation-play-state:paused" ></rect></g>
<g transform="rotate(90 50 50)" style="transform:matrix(6.12323e-17, 1, -1, 6.12323e-17, 100, 0);animation-play-state:paused" ><rect x="44.5" y="24" rx="5.5" ry="6" width="11" height="12" fill="#17161c" opacity="0.375" style="opacity:0.375;animation-play-state:paused" ></rect></g>
<g transform="rotate(135 50 50)" style="transform:matrix(-0.707107, 0.707107, -0.707107, -0.707107, 120.711, 50);animation-play-state:paused" ><rect x="44.5" y="24" rx="5.5" ry="6" width="11" height="12" fill="#17161c" opacity="0.5" style="opacity:0.5;animation-play-state:paused" ></rect></g>
<g transform="rotate(180 50 50)" style="transform:matrix(-1, 1.22465e-16, -1.22465e-16, -1, 100, 100);animation-play-state:paused" ><rect x="44.5" y="24" rx="5.5" ry="6" width="11" height="12" fill="#17161c" opacity="0.625" style="opacity:0.625;animation-play-state:paused" ></rect></g>
<g transform="rotate(225 50 50)" style="transform:matrix(-0.707107, -0.707107, 0.707107, -0.707107, 50, 120.711);animation-play-state:paused" ><rect x="44.5" y="24" rx="5.5" ry="6" width="11" height="12" fill="#17161c" opacity="0.75" style="opacity:0.75;animation-play-state:paused" ></rect></g>
<g transform="rotate(270 50 50)" style="transform:matrix(-1.83697e-16, -1, 1, -1.83697e-16, 7.10543e-15, 100);animation-play-state:paused" ><rect x="44.5" y="24" rx="5.5" ry="6" width="11" height="12" fill="#17161c" opacity="0.875" style="opacity:0.875;animation-play-state:paused" ></rect></g>
<g transform="rotate(315 50 50)" style="transform:matrix(0.707107, -0.707107, 0.707107, 0.707107, -20.7107, 50);animation-play-state:paused" ><rect x="44.5" y="24" rx="5.5" ry="6" width="11" height="12" fill="#17161c" opacity="1" style="animation-play-state:paused" ></rect></g><!-- generated by https://loading.io/ --></svg>